<svg width="1708" height="449" viewBox="0 0 1708 449" fill="none" xmlns="http://www.w3.org/2000/svg">
<path d="M32.4 0.938252C37.6 1.19685 46.4 1.19685 51.7333 0.938252C56.9333 0.808952 52.6667 0.550351 42 0.550351C31.3333 0.550351 27.0667 0.808952 32.4 0.938252Z" fill="#2A2A2A" fill-opacity="0.26"/>
<path d="M318.4 0.938252C320.4 1.19685 323.6 1.19685 325.733 0.938252C327.733 0.679651 326 0.421051 322 0.421051C318 0.421051 316.267 0.679651 318.4 0.938252Z" fill="#2A2A2A" fill-opacity="0.26"/>
<path d="M833.333 1.32604C832.933 2.10184 833.467 2.23114 834.533 1.84324C836.933 0.938138 837.333 0.0330364 835.467 0.0330364C834.667 0.0330364 833.733 0.550237 833.333 1.32604Z" fill="#2A2A2A" fill-opacity="0.26"/>
<path d="M871.333 0.550237C871.333 0.808838 872.267 1.45534 873.467 1.84324C874.533 2.23114 875.067 2.10184 874.667 1.32604C873.867 0.0330367 871.333 -0.484164 871.333 0.550237Z" fill="#2A2A2A" fill-opacity="0.26"/>
<path d="M1382.4 0.938252C1384.4 1.19685 1387.6 1.19685 1389.73 0.938252C1391.73 0.679651 1390 0.421051 1386 0.421051C1382 0.421051 1380.27 0.679651 1382.4 0.938252Z" fill="#2A2A2A" fill-opacity="0.26"/>
<path d="M1656.4 0.938252C1661.6 1.19685 1670.4 1.19685 1675.73 0.938252C1680.93 0.808952 1676.67 0.550351 1666 0.550351C1655.33 0.550351 1651.07 0.808952 1656.4 0.938252Z" fill="#2A2A2A" fill-opacity="0.26"/>
<path d="M842.533 12.9631L838.667 23.3071H825.333H812.133L822 13.351C832 3.39489 830.667 4.17069 816.667 16.7128L809.333 23.3071L796 23.1778C783.467 23.1778 782.933 23.0485 786.4 21.2383C788.4 20.2039 790 19.0402 790 18.6523C790 18.2644 787.867 19.1695 785.2 20.5918C779.867 23.695 784.4 23.4364 722 23.1778C708.4 23.0485 696.133 23.0485 694.667 23.0485C693.2 23.0485 675.2 23.0485 654.667 23.0485C634.133 23.0485 615.867 22.9192 614 23.0485C612.133 23.0485 585.2 23.1778 554 23.4364L497.333 23.8243L545.333 24.6001C571.733 24.988 591.867 25.5052 590 25.6345C588.133 25.8931 587.333 26.281 588 26.6689C588.8 26.9275 595.067 26.4103 602.133 25.5052C617.333 23.695 681.2 23.9536 678 25.8931C675.467 27.4447 675.6 27.4447 686.667 25.5052C692.4 24.6001 704.267 24.0829 717.333 24.3415C737.067 24.7294 738.4 24.8587 735.333 26.6689C733.067 27.9619 732.933 28.3498 734.667 27.8326C743.067 24.988 747.333 24.6001 761.333 24.8587L776.933 25.2466L759.6 34.5562L742.4 43.9952L717.867 43.8659H693.333L712.4 36.625C722.8 32.6167 731.2 29.1256 730.933 28.867C730.667 28.6084 720.933 31.9702 709.2 36.2371L688 43.9952L650.933 43.7366L613.867 43.3487L644.667 35.7199C661.467 31.453 675.067 27.8326 674.8 27.574C674.533 27.3154 658.8 30.8065 639.733 35.4613L605.067 43.9952L548.533 43.8659L492 43.7366L539.2 35.8492C565.2 31.453 585.733 27.7033 585.067 27.574C584.267 27.3154 560.267 30.9358 531.733 35.5906L479.733 43.9952L395.2 43.7366L310.667 43.3487L336.667 40.5041C415.333 31.9702 451.733 27.8326 449.333 27.4447C447.867 27.3154 411.733 30.9358 369.067 35.5906L291.6 43.9952L163.067 43.8659C92.4 43.7366 35.8667 43.478 37.3333 43.2194C38.8 43.0901 79.0667 40.1162 126.667 36.625C174.4 33.2632 211.733 30.2893 209.867 30.0307C207.867 29.7721 181.467 31.453 151.2 33.6511C43.8667 41.4092 25.2 42.7022 12.9333 43.478C-19.4667 45.8054 11.3333 46.5812 131.733 46.7105C245.6 46.8398 260.8 47.0984 248 48.5207C208.933 53.0462 4.66667 75.0272 2.8 75.0272C1.6 75.0272 0.666667 75.5444 0.666667 76.3202C0.666667 77.2253 46.4 77.6132 135.067 77.7425C208.933 77.7425 268.8 78.0011 268 78.2597C266.4 78.9062 4.26667 121.575 2.13333 121.575C1.33333 121.575 0.666667 122.48 0.666667 123.515C0.666667 125.196 16.8 125.454 134.933 125.713C262 126.101 268.8 126.23 260.667 128.17C255.867 129.333 195.733 144.074 127.067 160.883C58.4 177.692 1.73333 191.397 1.33333 191.397C0.933334 191.397 0.666667 192.561 0.666667 193.983C0.666667 196.569 1.73333 196.569 135.6 196.828L270.667 197.216L261.333 200.707C256.133 202.647 239.467 208.853 224 214.413C172.4 233.291 104.4 258.375 56 276.089C29.6 285.916 6.4 294.45 4.4 295.096C1.46667 296.131 0.666667 297.165 0.666667 300.139V303.889L132.8 304.147L264.933 304.535L133.333 376.297L1.86667 448.058L12.2667 448.446L22.6667 448.834L152 376.297L281.333 303.889H389.067C484.667 303.889 501.733 304.276 495.6 306.733C494.933 306.862 461.467 336.86 421.2 373.064C380.933 409.398 345.6 441.335 342.667 443.921L337.333 448.576H348.667H360L436.667 376.297L513.333 303.889H621.867C724.533 303.889 730.267 304.018 729.333 306.087C728.8 307.38 716.8 338.67 702.533 375.65C688.267 412.63 676 444.179 675.333 445.731C674.133 448.705 674.133 448.705 685.2 448.705H696.533L718.4 383.796C730.533 347.98 741.467 315.396 742.8 311.259L745.2 303.889H854H962.8L965.2 311.259C966.533 315.396 977.467 347.98 989.6 383.667L1011.47 448.705H1022.8C1029.07 448.705 1033.87 448.317 1033.6 447.67C1033.2 447.153 1020.93 415.604 1006.27 377.59C991.6 339.575 979.2 307.38 978.667 306.087C977.733 304.018 983.467 303.889 1086.13 303.889H1194.67L1271.33 376.297L1348 448.576H1359.33H1370.67L1362.27 441.205C1327.47 410.432 1211.47 305.569 1211.47 304.794C1211.33 304.276 1259.73 303.889 1319.07 303.889H1426.67L1556 376.297L1685.33 448.834L1695.73 448.446L1706.13 448.058L1574.67 376.297L1443.07 304.535L1575.2 304.147L1707.33 303.889V300.139C1707.33 297.165 1706.53 296.131 1703.73 295.096C1701.6 294.45 1662.53 279.968 1616.67 263.159C1570.8 246.35 1520.13 227.731 1504 221.783C1487.87 215.835 1466.67 208.077 1456.8 204.457C1446.93 200.836 1438.53 197.604 1438.27 197.216C1437.87 196.828 1498.27 196.569 1572.4 196.569C1706.4 196.569 1707.33 196.569 1707.33 193.983C1707.33 192.561 1707.07 191.397 1706.67 191.397C1706.27 191.397 1649.6 177.692 1580.93 160.883C1512.27 144.074 1452.13 129.333 1447.33 128.17C1439.2 126.23 1446 126.101 1573.07 125.713C1691.2 125.454 1707.33 125.196 1707.33 123.515C1707.33 122.48 1706.67 121.575 1705.87 121.575C1703.6 121.575 1441.6 78.9062 1440 78.2597C1439.33 78.0011 1499.07 77.7425 1573.07 77.7425C1661.6 77.6132 1707.33 77.2253 1707.33 76.3202C1707.33 75.5444 1706.4 75.0272 1705.2 75.0272C1703.33 75.0272 1499.07 53.0462 1460 48.5207C1447.2 47.0984 1462.4 46.8398 1576.4 46.7105C1696.67 46.5812 1727.47 45.8054 1695.07 43.478C1682.8 42.7022 1664.13 41.4092 1556.8 33.6511C1526.53 31.453 1500.13 29.7721 1498.13 30.0307C1496.27 30.2893 1533.73 33.2632 1581.33 36.625C1629.07 40.1162 1669.2 43.0901 1670.67 43.2194C1672.13 43.478 1615.6 43.7366 1544.93 43.8659L1416.4 43.9952L1338.93 35.5906C1296.27 30.9358 1260.13 27.3154 1258.67 27.4447C1256.27 27.8326 1292.67 31.9702 1371.33 40.5041L1397.33 43.3487L1312.8 43.7366L1228.27 43.9952L1176.27 35.5906C1147.73 30.9358 1123.73 27.3154 1122.93 27.574C1122.27 27.7033 1142.8 31.453 1168.8 35.8492L1216 43.7366L1159.33 43.8659L1102.67 43.9952L1066.27 35.0734C1046.13 30.16 1029.47 25.7638 1029.07 25.3759C1027.47 23.8243 1093.33 23.9536 1105.87 25.5052C1112.93 26.4103 1119.33 26.9275 1120 26.6689C1120.8 26.281 1119.87 25.8931 1118 25.6345C1116.13 25.5052 1136.27 24.988 1162.67 24.6001L1210.67 23.8243L1154 23.4364C1122.8 23.1778 1095.87 23.0485 1094 23.0485C1092.13 22.9192 1073.87 23.0485 1053.33 23.0485C1032.8 23.0485 1014.8 23.0485 1013.33 23.0485C1011.87 23.0485 999.6 23.0485 986 23.1778C923.6 23.4364 928.133 23.695 922.8 20.5918C920.133 19.1695 918 18.2644 918 18.6523C918 19.0402 919.6 20.2039 921.733 21.2383C925.067 23.0485 924.533 23.1778 912 23.1778L898.667 23.3071L891.333 16.7128C877.333 4.17069 876 3.39489 886 13.351L895.867 23.3071H882.667H869.333L865.467 12.9631C863.333 7.1446 861.467 2.74839 861.067 3.00699C860.8 3.39489 862.133 7.7911 864 13.0924C865.867 18.2644 867.333 22.6606 867.333 22.9192C867.333 23.1778 861.333 23.3071 854 23.3071C846.667 23.3071 840.667 23.1778 840.667 22.9192C840.667 22.6606 842.133 18.2644 844 13.0924C845.867 7.7911 847.2 3.39489 846.933 3.00699C846.533 2.74839 844.667 7.1446 842.533 12.9631ZM1061.07 35.0734L1094.13 43.3487L1057.07 43.7366L1020 43.9952L998.8 36.2371C987.067 31.9702 977.333 28.6084 977.067 28.867C976.8 29.1256 985.2 32.6167 995.6 36.625L1014.67 43.8659H990.133L965.6 43.9952L950.8 35.9785C942.667 31.5823 934.8 27.3154 933.467 26.4103C931.333 24.988 938.133 24.7294 970.667 24.7294C992.533 24.7294 1010.67 24.4708 1010.93 24.2122C1011.87 23.3071 1027.07 26.5396 1061.07 35.0734ZM797.333 34.2976L786.667 43.8659L766 43.9952H745.333L762.667 34.2976L780 24.7294H794H808L797.333 34.2976ZM834.267 34.2976L830.667 43.9952H810L789.333 43.8659L799.733 34.2976L810.267 24.6001H824H837.867L834.267 34.2976ZM871.067 33.3925C872.667 38.3059 874 42.5729 874 43.0901C874 43.6073 865.067 43.9952 854 43.9952C843.067 43.9952 834 43.6073 834 43.0901C834 42.5729 835.333 38.3059 836.933 33.3925L839.867 24.6001H854H868.133L871.067 33.3925ZM908.267 34.2976L918.667 43.8659L898 43.9952H877.333L873.733 34.2976L870.133 24.6001H884H897.733L908.267 34.2976ZM945.333 34.2976L962.667 43.9952H942L921.333 43.8659L910.667 34.2976L900 24.7294H914H928L945.333 34.2976ZM451.333 48.5207C445.867 49.4258 407.2 55.7615 365.467 62.6144L289.6 75.0272L159.467 74.8979L29.3333 74.7686L62 71.0189C80 69.0794 105.2 66.2348 118 64.8125C130.8 63.2609 168 59.2526 200.667 55.6322C233.333 52.1411 263.6 48.65 268 48.0035C272.4 47.357 317.733 46.9691 368.667 46.8398C448.667 46.8398 460 47.0984 451.333 48.5207ZM536 60.8042L478.667 75.0272L392 74.8979L305.333 74.7686L326.667 71.1482C338.4 69.0794 359.067 65.5883 372.667 63.3902C386.267 61.1921 413.867 56.5373 434 53.0462L470.667 46.8398H532L593.333 46.7105L536 60.8042ZM679.2 47.0984C678.933 47.357 661.867 53.6927 641.333 61.3214L604 75.0272L546.667 74.8979C497.867 74.7686 490.267 74.51 495.333 73.0877C498.667 72.1826 520.533 66.752 544 60.8042C567.467 54.9857 589.333 49.4258 592.667 48.5207C596.8 47.357 611.067 46.8398 639.2 46.7105C661.467 46.7105 679.467 46.8398 679.2 47.0984ZM736.533 47.0984C736.267 47.357 724.667 53.6927 710.8 61.3214L685.733 75.0272L648.533 74.7686L611.333 74.3807L647.733 60.6749L684 46.8398L710.533 46.7105C725.2 46.5812 736.8 46.8398 736.533 47.0984ZM772.4 56.6666C766.267 62.3558 759.2 68.6915 756.4 71.0189L751.6 75.0272L721.467 74.7686L691.2 74.3807L715.6 60.5456L740 46.8398L761.733 46.7105L783.467 46.5812L772.4 56.6666ZM824.133 60.8042L818.667 75.0272H787.467H756.4L771.467 60.8042L786.667 46.7105L808.133 46.5812H829.6L824.133 60.8042ZM880.267 60.1577C882.667 67.2692 884.667 73.4756 884.667 73.9928C884.667 74.6393 870.933 75.0272 854 75.0272C837.2 75.0272 823.333 74.6393 823.333 74.2514C823.333 73.3463 831.467 48.7793 832.267 47.4863C832.533 46.9691 842.533 46.7105 854.4 46.8398L875.867 47.2277L880.267 60.1577ZM936.533 60.8042L951.6 75.0272H920.533H889.333L883.867 60.8042L878.4 46.5812H899.867L921.333 46.7105L936.533 60.8042ZM991.867 60.4163L1016.8 74.3807L986.533 74.7686L956.4 75.0272L951.6 71.0189C948.8 68.6915 941.733 62.3558 935.6 56.6666L924.533 46.5812H945.733H967.067L991.867 60.4163ZM1059.6 60.4163L1096.67 74.3807L1059.47 74.7686L1022.27 75.0272L997.2 61.3214C983.333 53.6927 971.733 47.357 971.467 47.0984C971.2 46.8398 982.533 46.5812 996.667 46.5812H1022.53L1059.6 60.4163ZM1117.07 49.0379C1122.27 50.4602 1144.67 56.0201 1166.67 61.58C1188.67 67.0106 1209.33 72.1826 1212.67 73.0877C1217.73 74.51 1210.13 74.7686 1161.33 74.8979L1104 75.0272L1066.67 61.3214C1046.13 53.6927 1029.07 47.357 1028.8 47.0984C1028.53 46.8398 1046 46.5812 1067.87 46.5812C1102.67 46.5812 1108.53 46.8398 1117.07 49.0379ZM1296.4 56.9252C1330.67 62.6144 1368.53 68.9501 1380.67 71.0189L1402.67 74.7686L1316 74.8979L1229.33 75.0272L1172 60.8042L1114.67 46.7105H1174.4L1234.13 46.5812L1296.4 56.9252ZM1472 51.4946C1508.4 55.7615 1573.2 63.0023 1639.2 70.1138L1678.53 74.3807L1548.53 74.7686L1418.67 75.0272L1342.67 62.6144C1300.93 55.7615 1262.13 49.4258 1256.67 48.5207C1248 47.0984 1259.87 46.8398 1342 47.0984L1437.33 47.357L1472 51.4946ZM464.533 78.1304C464.267 78.389 424.267 88.3451 375.733 100.111L287.6 121.575L156.4 121.446C84.4 121.317 26.8 120.929 28.6667 120.67C30.5333 120.412 88.6667 110.585 158 98.9477L284 77.8718L374.533 77.7425C424.4 77.6132 464.8 77.8718 464.533 78.1304ZM590 79.8113C586 81.4922 530.667 102.051 489.067 117.179L476.933 121.575L390 121.317L303.067 120.929L319.6 116.92C345.6 110.455 412 93.7757 444.667 85.5005L474.667 77.8718H534.667C589.867 77.8718 594.267 78.0011 590 79.8113ZM678.933 78.389C678.533 78.7769 660.667 88.733 639.2 100.37L600.267 121.575L543.867 121.317L487.333 120.929L544.4 99.3356L601.333 77.8718L640.533 77.7425C662.133 77.6132 679.467 78.0011 678.933 78.389ZM746 80.7164C744.133 82.3973 733.2 92.2241 721.6 102.697L700.533 121.575H653.733H606.8L646 99.5942L685.333 77.6132H717.333H749.333L746 80.7164ZM816.667 78.7769C816.667 79.2941 813.067 89.1209 808.8 100.37L800.933 120.929L754 121.317L707.067 121.575L730.133 99.7235L753.333 77.7425L785.067 77.6132C802.4 77.6132 816.667 78.1304 816.667 78.7769ZM892.8 97.9133C896.533 109.162 900 119.119 900.4 119.894C900.8 121.187 890.933 121.575 854 121.575C817.067 121.575 807.2 121.187 807.6 119.894C808 119.119 811.467 109.162 815.2 97.9133L822.267 77.6132H854H885.733L892.8 97.9133ZM977.867 99.7235L1000.93 121.575L954 121.317L907.067 120.929L899.2 100.37C894.933 89.1209 891.333 79.2941 891.333 78.7769C891.333 78.1304 905.6 77.6132 923.067 77.6132L954.667 77.7425L977.867 99.7235ZM1062 99.5942L1101.2 121.575H1054.27H1007.47L986.4 102.697C974.8 92.2241 963.867 82.3973 962 80.7164L958.667 77.6132H990.667H1022.67L1062 99.5942ZM1162.93 99.2063L1220.67 120.929L1164.13 121.317L1107.73 121.575L1068.8 100.37C1047.33 88.733 1029.47 78.7769 1029.07 78.389C1028.53 78.0011 1045.6 77.6132 1066.67 77.6132H1105.2L1162.93 99.2063ZM1263.07 85.5005C1280.4 89.8967 1311.73 97.784 1332.67 102.956C1353.6 108.257 1378.4 114.464 1387.73 116.662L1404.93 120.929L1318 121.317L1231.07 121.575L1218.93 117.179C1177.33 102.051 1122 81.4922 1118 79.8113C1113.73 78.0011 1118 77.8718 1172.4 77.7425L1231.33 77.6132L1263.07 85.5005ZM1541.87 97.784C1608.27 108.904 1667.2 118.731 1672.67 119.636C1681.2 121.058 1663.6 121.317 1551.6 121.446L1420.4 121.575L1332.27 100.111C1283.73 88.3451 1243.73 78.389 1243.47 78.1304C1243.2 77.8718 1282.93 77.6132 1332 77.6132H1421.07L1541.87 97.784ZM462.667 126.618C458.533 128.299 405.467 147.823 346.667 169.416C317.333 180.148 291.867 189.458 290 190.104C287.867 191.009 238.8 191.268 155.333 191.139L24.1333 190.751L36 187.906C42.6667 186.225 58.5333 182.346 71.3333 179.114C84.1333 175.881 107.6 169.934 123.333 166.055C139.067 162.176 158.667 157.262 166.667 155.193C174.8 153.125 195.733 147.823 213.333 143.427C230.933 139.031 254 133.342 264.667 130.626L284 125.713L374.667 125.584C424.533 125.584 464.133 126.101 462.667 126.618ZM590.667 126.618C589.867 127.264 563.067 142.005 530.8 159.59L472.4 191.397L386.933 191.139L301.467 190.751L354.8 170.839C384 159.848 423.067 145.237 441.333 138.255L474.667 125.584H533.333C566.667 125.454 591.333 125.971 590.667 126.618ZM692 129.204C689.733 131.273 673.333 146.142 655.467 162.176L622.933 191.397H552.8C510.533 191.397 483.467 190.88 484.667 190.104C485.733 189.458 512.133 174.718 543.333 157.262L600 125.454H648H696L692 129.204ZM794.4 137.35C791.867 143.944 786.133 158.814 781.733 170.321L773.733 191.397H703.467L633.333 191.268L668 158.426L702.667 125.584L750.8 125.454H799.067L794.4 137.35ZM913.333 158.426L924.133 190.751L889.067 191.139C869.733 191.268 838.267 191.268 818.933 191.139L783.867 190.751L794.267 159.719C800 142.651 804.933 127.911 805.333 127.006C805.733 125.713 816.267 125.454 854.133 125.713L902.4 126.101L913.333 158.426ZM1040 158.426L1074.67 191.268L1004.53 191.397H934.267L926.267 170.321C921.867 158.814 916.133 143.944 913.6 137.35L908.933 125.454H957.2L1005.33 125.584L1040 158.426ZM1164.67 157.262C1195.87 174.718 1222.27 189.458 1223.33 190.104C1224.53 190.88 1197.47 191.397 1155.2 191.397H1085.07L1052.53 162.176C1034.67 146.142 1018.27 131.273 1016 129.204L1012 125.454H1060H1108L1164.67 157.262ZM1271.6 140.195C1293.07 148.211 1332.27 162.951 1358.53 172.778L1406.53 190.751L1321.07 191.139L1235.6 191.397L1177.2 159.59C1144.93 142.005 1118.13 127.264 1117.47 126.618C1116.67 125.971 1141.2 125.454 1174.27 125.454H1232.53L1271.6 140.195ZM1453.87 133.342C1471.2 137.609 1493.33 143.168 1503.07 145.625C1540.8 155.064 1557.07 159.202 1584.67 166.055C1600.4 169.934 1623.87 175.881 1636.67 179.114C1649.47 182.346 1665.33 186.225 1672 187.906L1683.87 190.751L1552.67 191.139C1469.2 191.268 1420.13 191.009 1418 190.104C1416.13 189.458 1390.67 180.148 1361.33 169.416C1302.53 147.823 1249.47 128.299 1245.33 126.618C1243.87 126.101 1283.07 125.584 1332.53 125.584L1422.4 125.454L1453.87 133.342ZM460 197.733C459.2 198.38 418.533 220.749 369.467 247.514L280.4 296.131L151.467 295.872C29.7333 295.484 22.9333 295.355 28.6667 293.286C34.5333 291.217 251.333 209.758 274 201.095L285.333 196.699H373.333C426.133 196.569 460.667 197.087 460 197.733ZM615.333 198.38C614.267 199.414 589.333 221.783 560 248.16L506.667 296.131H401.333C335.2 296.131 296.8 295.613 298 294.838C299.067 294.191 338.667 271.822 386 245.186L472 196.828L544.667 196.699C607.2 196.569 616.933 196.828 615.333 198.38ZM770.933 198.121C770.667 199.026 762 221.524 751.867 247.902L733.333 296.131H627.333H521.333L525.333 292.51C527.6 290.441 551.333 268.072 578.267 242.73L627.2 196.569H699.467C756.667 196.569 771.467 196.957 770.933 198.121ZM942.933 245.703C951.867 272.339 959.333 294.579 959.333 295.096C959.333 295.743 912 296.131 854 296.131C796.133 296.131 748.667 295.743 748.667 295.355C748.667 294.32 780.8 198.768 781.6 197.475C781.867 196.957 814.667 196.699 854.267 196.828L926.533 197.216L942.933 245.703ZM1129.73 242.73C1156.67 268.072 1180.4 290.441 1182.67 292.51L1186.67 296.131H1080.67H974.667L956.133 247.902C946 221.524 937.333 199.026 937.067 198.121C936.533 196.957 951.333 196.569 1008.53 196.569H1080.8L1129.73 242.73ZM1319.47 243.893C1366 269.883 1405.87 292.252 1408 293.674C1412 296.001 1410.67 296.131 1306.67 296.131H1201.33L1148 248.16C1118.67 221.783 1093.73 199.414 1092.67 198.38C1091.07 196.828 1100.53 196.569 1162.93 196.569H1234.93L1319.47 243.893ZM1466.27 213.249C1633.33 276.089 1674 291.476 1679.33 293.286C1685.07 295.355 1678.13 295.484 1556.53 295.872L1427.6 296.131L1338.53 247.514C1289.47 220.749 1248.8 198.38 1248.13 197.733C1247.33 197.087 1281.6 196.569 1334.4 196.569H1421.87L1466.27 213.249Z" fill="#2A2A2A" fill-opacity="0.26"/>
<path d="M971.333 27.1861C972.4 27.8326 974 28.4791 974.667 28.4791C975.467 28.4791 975.067 27.8326 974 27.1861C972.933 26.5396 971.467 25.8931 970.667 25.8931C970 25.8931 970.267 26.5396 971.333 27.1861Z" fill="#2A2A2A" fill-opacity="0.26"/>
<path d="M17.7333 9.98916C22.9333 10.2478 31.7333 10.2478 37.0667 9.98916C42.2667 9.85985 38 9.60125 27.3333 9.60125C16.6667 9.60125 12.4 9.85985 17.7333 9.98916Z" fill="#2A2A2A" fill-opacity="0.26"/>
<path d="M302.4 9.98916C305.867 10.2478 311.333 10.2478 314.4 9.98916C317.467 9.73055 314.667 9.60125 308 9.60125C301.467 9.60125 298.933 9.73055 302.4 9.98916Z" fill="#2A2A2A" fill-opacity="0.26"/>
<path d="M488.4 9.98916C490.8 10.2478 494.4 10.2478 496.4 9.98916C498.4 9.73055 496.4 9.47195 492 9.47195C487.6 9.47195 486 9.73055 488.4 9.98916Z" fill="#2A2A2A" fill-opacity="0.26"/>
<path d="M611.067 9.98916C612.667 10.2478 615.333 10.2478 617.067 9.98916C618.667 9.73055 617.333 9.47195 614 9.47195C610.667 9.47195 609.333 9.73055 611.067 9.98916Z" fill="#2A2A2A" fill-opacity="0.26"/>
<path d="M692.4 9.98916C693.2 10.2478 694.8 10.2478 695.733 9.98916C696.533 9.60125 695.867 9.34265 694 9.34265C692.133 9.34265 691.467 9.60125 692.4 9.98916Z" fill="#2A2A2A" fill-opacity="0.26"/>
<path d="M747.067 9.9893C748 10.3772 749.2 10.2479 749.6 9.86C750.133 9.4721 749.333 9.0842 747.867 9.2135C746.4 9.2135 746 9.6014 747.067 9.9893Z" fill="#2A2A2A" fill-opacity="0.26"/>
<path d="M803.333 10.377C802.267 11.0235 802 11.67 802.667 11.67C803.467 11.67 804.933 11.0235 806 10.377C807.067 9.73054 807.467 9.08404 806.667 9.08404C806 9.08404 804.4 9.73054 803.333 10.377Z" fill="#2A2A2A" fill-opacity="0.26"/>
<path d="M902 10.377C903.067 11.0235 904.667 11.67 905.333 11.67C906.133 11.67 905.733 11.0235 904.667 10.377C903.6 9.73054 902.133 9.08404 901.333 9.08404C900.667 9.08404 900.933 9.73054 902 10.377Z" fill="#2A2A2A" fill-opacity="0.26"/>
<path d="M959.067 9.9893C960 10.3772 961.2 10.2479 961.6 9.86C962.133 9.4721 961.333 9.0842 959.867 9.2135C958.4 9.2135 958 9.6014 959.067 9.9893Z" fill="#2A2A2A" fill-opacity="0.26"/>
<path d="M1012.4 9.98916C1013.2 10.2478 1014.8 10.2478 1015.73 9.98916C1016.53 9.60125 1015.87 9.34265 1014 9.34265C1012.13 9.34265 1011.47 9.60125 1012.4 9.98916Z" fill="#2A2A2A" fill-opacity="0.26"/>
<path d="M1091.07 9.98916C1092.67 10.2478 1095.33 10.2478 1097.07 9.98916C1098.67 9.73055 1097.33 9.47195 1094 9.47195C1090.67 9.47195 1089.33 9.73055 1091.07 9.98916Z" fill="#2A2A2A" fill-opacity="0.26"/>
<path d="M1212.4 9.98916C1214.8 10.2478 1218.4 10.2478 1220.4 9.98916C1222.4 9.73055 1220.4 9.47195 1216 9.47195C1211.6 9.47195 1210 9.73055 1212.4 9.98916Z" fill="#2A2A2A" fill-opacity="0.26"/>
<path d="M1394.4 9.98916C1397.87 10.2478 1403.33 10.2478 1406.4 9.98916C1409.47 9.73055 1406.67 9.60125 1400 9.60125C1393.47 9.60125 1390.93 9.73055 1394.4 9.98916Z" fill="#2A2A2A" fill-opacity="0.26"/>
<path d="M1671.07 9.98916C1676.27 10.2478 1685.07 10.2478 1690.4 9.98916C1695.6 9.85985 1691.33 9.60125 1680.67 9.60125C1670 9.60125 1665.73 9.85985 1671.07 9.98916Z" fill="#2A2A2A" fill-opacity="0.26"/>
<path d="M265.067 11.2822C268.533 11.5408 274.133 11.5408 277.733 11.2822C281.2 11.0236 278.267 10.8943 271.333 10.8943C264.4 10.8943 261.467 11.0236 265.067 11.2822Z" fill="#2A2A2A" fill-opacity="0.26"/>
<path d="M464.4 11.2822C466.8 11.5408 470.4 11.5408 472.4 11.2822C474.4 11.0236 472.4 10.765 468 10.765C463.6 10.765 462 11.0236 464.4 11.2822Z" fill="#2A2A2A" fill-opacity="0.26"/>
<path d="M595.067 11.2822C596.667 11.5408 599.333 11.5408 601.067 11.2822C602.667 11.0236 601.333 10.765 598 10.765C594.667 10.765 593.333 11.0236 595.067 11.2822Z" fill="#2A2A2A" fill-opacity="0.26"/>
<path d="M682.4 11.2822C683.6 11.5408 685.467 11.5408 686.4 11.2822C687.2 10.8943 686.267 10.6357 684 10.6357C681.867 10.6357 681.067 10.8943 682.4 11.2822Z" fill="#2A2A2A" fill-opacity="0.26"/>
<path d="M739.067 11.2822C739.867 11.5408 741.467 11.5408 742.4 11.2822C743.2 10.8943 742.533 10.6357 740.667 10.6357C738.8 10.6357 738.133 10.8943 739.067 11.2822Z" fill="#2A2A2A" fill-opacity="0.26"/>
<path d="M777.733 11.2822C778.667 11.6701 779.867 11.5408 780.267 11.1529C780.8 10.765 780 10.3771 778.533 10.5064C777.067 10.5064 776.667 10.8943 777.733 11.2822Z" fill="#2A2A2A" fill-opacity="0.26"/>
<path d="M928.4 11.2822C929.333 11.6701 930.533 11.5408 930.933 11.1529C931.467 10.765 930.667 10.3771 929.2 10.5064C927.733 10.5064 927.333 10.8943 928.4 11.2822Z" fill="#2A2A2A" fill-opacity="0.26"/>
<path d="M965.733 11.2822C966.533 11.5408 968.133 11.5408 969.067 11.2822C969.867 10.8943 969.2 10.6357 967.333 10.6357C965.467 10.6357 964.8 10.8943 965.733 11.2822Z" fill="#2A2A2A" fill-opacity="0.26"/>
<path d="M1022.4 11.2822C1023.6 11.5408 1025.47 11.5408 1026.4 11.2822C1027.2 10.8943 1026.27 10.6357 1024 10.6357C1021.87 10.6357 1021.07 10.8943 1022.4 11.2822Z" fill="#2A2A2A" fill-opacity="0.26"/>
<path d="M1107.07 11.2822C1108.67 11.5408 1111.33 11.5408 1113.07 11.2822C1114.67 11.0236 1113.33 10.765 1110 10.765C1106.67 10.765 1105.33 11.0236 1107.07 11.2822Z" fill="#2A2A2A" fill-opacity="0.26"/>
<path d="M1236.4 11.2822C1238.8 11.5408 1242.4 11.5408 1244.4 11.2822C1246.4 11.0236 1244.4 10.765 1240 10.765C1235.6 10.765 1234 11.0236 1236.4 11.2822Z" fill="#2A2A2A" fill-opacity="0.26"/>
<path d="M1430.4 11.2822C1433.87 11.5408 1439.47 11.5408 1443.07 11.2822C1446.53 11.0236 1443.6 10.8943 1436.67 10.8943C1429.73 10.8943 1426.8 11.0236 1430.4 11.2822Z" fill="#2A2A2A" fill-opacity="0.26"/>
<path d="M217.067 13.8682C218.267 14.1268 220.4 14.1268 221.733 13.8682C222.933 13.4803 221.867 13.2217 219.333 13.2217C216.8 13.2217 215.733 13.4803 217.067 13.8682Z" fill="#2A2A2A" fill-opacity="0.26"/>
<path d="M432.4 13.8683C433.333 14.2562 434.533 14.1269 434.933 13.739C435.467 13.3511 434.667 12.9632 433.2 13.0925C431.733 13.0925 431.333 13.4804 432.4 13.8683Z" fill="#2A2A2A" fill-opacity="0.26"/>
<path d="M573.733 13.8683C574.667 14.2562 575.867 14.1269 576.267 13.739C576.8 13.3511 576 12.9632 574.533 13.0925C573.067 13.0925 572.667 13.4804 573.733 13.8683Z" fill="#2A2A2A" fill-opacity="0.26"/>
<path d="M1132.4 13.8683C1133.33 14.2562 1134.53 14.1269 1134.93 13.739C1135.47 13.3511 1134.67 12.9632 1133.2 13.0925C1131.73 13.0925 1131.33 13.4804 1132.4 13.8683Z" fill="#2A2A2A" fill-opacity="0.26"/>
<path d="M1273.73 13.8683C1274.67 14.2562 1275.87 14.1269 1276.27 13.739C1276.8 13.3511 1276 12.9632 1274.53 13.0925C1273.07 13.0925 1272.67 13.4804 1273.73 13.8683Z" fill="#2A2A2A" fill-opacity="0.26"/>
<path d="M1486.4 13.8682C1487.6 14.1268 1489.73 14.1268 1491.07 13.8682C1492.27 13.4803 1491.2 13.2217 1488.67 13.2217C1486.13 13.2217 1485.07 13.4803 1486.4 13.8682Z" fill="#2A2A2A" fill-opacity="0.26"/>
<path d="M197.067 15.1612C198.267 15.4198 200.4 15.4198 201.733 15.1612C202.933 14.7733 201.867 14.5147 199.333 14.5147C196.8 14.5147 195.733 14.7733 197.067 15.1612Z" fill="#2A2A2A" fill-opacity="0.26"/>
<path d="M417.733 15.1612C418.533 15.4198 420.133 15.4198 421.067 15.1612C421.867 14.7733 421.2 14.5147 419.333 14.5147C417.467 14.5147 416.8 14.7733 417.733 15.1612Z" fill="#2A2A2A" fill-opacity="0.26"/>
<path d="M1287.07 15.1612C1287.87 15.4198 1289.47 15.4198 1290.4 15.1612C1291.2 14.7733 1290.53 14.5147 1288.67 14.5147C1286.8 14.5147 1286.13 14.7733 1287.07 15.1612Z" fill="#2A2A2A" fill-opacity="0.26"/>
<path d="M1506.4 15.1612C1507.6 15.4198 1509.73 15.4198 1511.07 15.1612C1512.27 14.7733 1511.2 14.5147 1508.67 14.5147C1506.13 14.5147 1505.07 14.7733 1506.4 15.1612Z" fill="#2A2A2A" fill-opacity="0.26"/>
<path d="M163.733 16.4542C165.733 16.7128 168.667 16.7128 170.4 16.4542C172 16.1956 170.4 15.937 166.667 15.937C163.067 15.937 161.6 16.1956 163.733 16.4542Z" fill="#2A2A2A" fill-opacity="0.26"/>
<path d="M396.4 16.4542C397.2 16.7128 398.8 16.7128 399.733 16.4542C400.533 16.0663 399.867 15.8077 398 15.8077C396.133 15.8077 395.467 16.0663 396.4 16.4542Z" fill="#2A2A2A" fill-opacity="0.26"/>
<path d="M549.733 16.4542C550.533 16.7128 552.133 16.7128 553.067 16.4542C553.867 16.0663 553.2 15.8077 551.333 15.8077C549.467 15.8077 548.8 16.0663 549.733 16.4542Z" fill="#2A2A2A" fill-opacity="0.26"/>
<path d="M1155.07 16.4542C1155.87 16.7128 1157.47 16.7128 1158.4 16.4542C1159.2 16.0663 1158.53 15.8077 1156.67 15.8077C1154.8 15.8077 1154.13 16.0663 1155.07 16.4542Z" fill="#2A2A2A" fill-opacity="0.26"/>
<path d="M1307.73 16.4542C1308.93 16.7128 1310.8 16.7128 1311.73 16.4542C1312.53 16.0663 1311.6 15.8077 1309.33 15.8077C1307.2 15.8077 1306.4 16.0663 1307.73 16.4542Z" fill="#2A2A2A" fill-opacity="0.26"/>
<path d="M1538.4 16.4542C1540.4 16.7128 1543.33 16.7128 1545.07 16.4542C1546.67 16.1956 1545.07 15.937 1541.33 15.937C1537.73 15.937 1536.27 16.1956 1538.4 16.4542Z" fill="#2A2A2A" fill-opacity="0.26"/>
<path d="M141.067 17.7472C143.067 18.0058 146 18.0058 147.733 17.7472C149.333 17.4886 147.733 17.23 144 17.23C140.4 17.23 138.933 17.4886 141.067 17.7472Z" fill="#2A2A2A" fill-opacity="0.26"/>
<path d="M382.4 17.7472C383.6 18.0058 385.467 18.0058 386.4 17.7472C387.2 17.3593 386.267 17.1007 384 17.1007C381.867 17.1007 381.067 17.3593 382.4 17.7472Z" fill="#2A2A2A" fill-opacity="0.26"/>
<path d="M539.733 17.7472C540.933 18.0058 542.8 18.0058 543.733 17.7472C544.533 17.3593 543.6 17.1007 541.333 17.1007C539.2 17.1007 538.4 17.3593 539.733 17.7472Z" fill="#2A2A2A" fill-opacity="0.26"/>
<path d="M645.733 17.7473C646.667 18.1352 647.867 18.0059 648.267 17.618C648.8 17.2301 648 16.8422 646.533 16.9715C645.067 16.9715 644.667 17.3594 645.733 17.7473Z" fill="#2A2A2A" fill-opacity="0.26"/>
<path d="M1060.4 17.7473C1061.33 18.1352 1062.53 18.0059 1062.93 17.618C1063.47 17.2301 1062.67 16.8422 1061.2 16.9715C1059.73 16.9715 1059.33 17.3594 1060.4 17.7473Z" fill="#2A2A2A" fill-opacity="0.26"/>
<path d="M1165.07 17.7472C1166.27 18.0058 1168.13 18.0058 1169.07 17.7472C1169.87 17.3593 1168.93 17.1007 1166.67 17.1007C1164.53 17.1007 1163.73 17.3593 1165.07 17.7472Z" fill="#2A2A2A" fill-opacity="0.26"/>
<path d="M1322.4 17.7472C1323.6 18.0058 1325.47 18.0058 1326.4 17.7472C1327.2 17.3593 1326.27 17.1007 1324 17.1007C1321.87 17.1007 1321.07 17.3593 1322.4 17.7472Z" fill="#2A2A2A" fill-opacity="0.26"/>
<path d="M1561.07 17.7472C1563.07 18.0058 1566 18.0058 1567.73 17.7472C1569.33 17.4886 1567.73 17.23 1564 17.23C1560.4 17.23 1558.93 17.4886 1561.07 17.7472Z" fill="#2A2A2A" fill-opacity="0.26"/>
<path d="M109.067 19.0402C111.067 19.2988 114.267 19.2988 116.4 19.0402C118.4 18.7816 116.667 18.523 112.667 18.523C108.667 18.523 106.933 18.7816 109.067 19.0402Z" fill="#2A2A2A" fill-opacity="0.26"/>
<path d="M361.733 19.0402C363.333 19.2988 365.733 19.2988 367.067 19.0402C368.267 18.6523 366.933 18.3937 364 18.523C361.067 18.523 360 18.7816 361.733 19.0402Z" fill="#2A2A2A" fill-opacity="0.26"/>
<path d="M526.4 19.0402C527.6 19.2988 529.467 19.2988 530.4 19.0402C531.2 18.6523 530.267 18.3937 528 18.3937C525.867 18.3937 525.067 18.6523 526.4 19.0402Z" fill="#2A2A2A" fill-opacity="0.26"/>
<path d="M636.4 19.0402C637.333 19.4281 638.533 19.2988 638.933 18.9109C639.467 18.523 638.667 18.1351 637.2 18.2644C635.733 18.2644 635.333 18.6523 636.4 19.0402Z" fill="#2A2A2A" fill-opacity="0.26"/>
<path d="M1069.73 19.0402C1070.67 19.4281 1071.87 19.2988 1072.27 18.9109C1072.8 18.523 1072 18.1351 1070.53 18.2644C1069.07 18.2644 1068.67 18.6523 1069.73 19.0402Z" fill="#2A2A2A" fill-opacity="0.26"/>
<path d="M1178.4 19.0402C1179.6 19.2988 1181.47 19.2988 1182.4 19.0402C1183.2 18.6523 1182.27 18.3937 1180 18.3937C1177.87 18.3937 1177.07 18.6523 1178.4 19.0402Z" fill="#2A2A2A" fill-opacity="0.26"/>
<path d="M1341.73 19.0402C1343.33 19.2988 1345.73 19.2988 1347.07 19.0402C1348.27 18.6523 1346.93 18.3937 1344 18.523C1341.07 18.523 1340 18.7816 1341.73 19.0402Z" fill="#2A2A2A" fill-opacity="0.26"/>
<path d="M1591.73 19.0402C1593.73 19.2988 1596.93 19.2988 1599.07 19.0402C1601.07 18.7816 1599.33 18.523 1595.33 18.523C1591.33 18.523 1589.6 18.7816 1591.73 19.0402Z" fill="#2A2A2A" fill-opacity="0.26"/>
<path d="M84.2667 20.3333C86.6667 20.5919 90.9333 20.5919 93.6 20.3333C96.4 20.0747 94.5333 19.8161 89.3333 19.8161C84.2667 19.8161 82 20.0747 84.2667 20.3333Z" fill="#2A2A2A" fill-opacity="0.26"/>
<path d="M345.733 20.3333C347.333 20.5919 349.733 20.5919 351.067 20.3333C352.267 19.9454 350.933 19.6868 348 19.8161C345.067 19.8161 344 20.0747 345.733 20.3333Z" fill="#2A2A2A" fill-opacity="0.26"/>
<path d="M515.733 20.3333C516.933 20.5919 518.8 20.5919 519.733 20.3333C520.533 19.9454 519.6 19.6868 517.333 19.6868C515.2 19.6868 514.4 19.9454 515.733 20.3333Z" fill="#2A2A2A" fill-opacity="0.26"/>
<path d="M629.733 20.3333C630.667 20.7212 631.867 20.5919 632.267 20.204C632.8 19.8161 632 19.4282 630.533 19.5575C629.067 19.5575 628.667 19.9454 629.733 20.3333Z" fill="#2A2A2A" fill-opacity="0.26"/>
<path d="M704.4 20.3333C705.333 20.7212 706.533 20.5919 706.933 20.204C707.467 19.8161 706.667 19.4282 705.2 19.5575C703.733 19.5575 703.333 19.9454 704.4 20.3333Z" fill="#2A2A2A" fill-opacity="0.26"/>
<path d="M1001.73 20.3333C1002.67 20.7212 1003.87 20.5919 1004.27 20.204C1004.8 19.8161 1004 19.4282 1002.53 19.5575C1001.07 19.5575 1000.67 19.9454 1001.73 20.3333Z" fill="#2A2A2A" fill-opacity="0.26"/>
<path d="M1076.4 20.3333C1077.33 20.7212 1078.53 20.5919 1078.93 20.204C1079.47 19.8161 1078.67 19.4282 1077.2 19.5575C1075.73 19.5575 1075.33 19.9454 1076.4 20.3333Z" fill="#2A2A2A" fill-opacity="0.26"/>
<path d="M1189.07 20.3333C1190.27 20.5919 1192.13 20.5919 1193.07 20.3333C1193.87 19.9454 1192.93 19.6868 1190.67 19.6868C1188.53 19.6868 1187.73 19.9454 1189.07 20.3333Z" fill="#2A2A2A" fill-opacity="0.26"/>
<path d="M1357.73 20.3333C1359.33 20.5919 1361.73 20.5919 1363.07 20.3333C1364.27 19.9454 1362.93 19.6868 1360 19.8161C1357.07 19.8161 1356 20.0747 1357.73 20.3333Z" fill="#2A2A2A" fill-opacity="0.26"/>
<path d="M1613.6 20.3333C1616 20.5919 1620.27 20.5919 1622.93 20.3333C1625.73 20.0747 1623.87 19.8161 1618.67 19.8161C1613.6 19.8161 1611.33 20.0747 1613.6 20.3333Z" fill="#2A2A2A" fill-opacity="0.26"/>
<path d="M56.4 21.6262C59.4667 21.8848 64.2667 21.8848 67.0667 21.6262C69.7333 21.3676 67.2 21.109 61.3333 21.109C55.4667 21.109 53.2 21.3676 56.4 21.6262Z" fill="#2A2A2A" fill-opacity="0.26"/>
<path d="M325.067 21.6262C327.067 21.8848 330 21.8848 331.733 21.6262C333.333 21.3676 331.733 21.109 328 21.109C324.4 21.109 322.933 21.3676 325.067 21.6262Z" fill="#2A2A2A" fill-opacity="0.26"/>
<path d="M502.4 21.6262C503.6 21.8848 505.733 21.8848 507.067 21.6262C508.267 21.2383 507.2 20.9797 504.667 20.9797C502.133 20.9797 501.067 21.2383 502.4 21.6262Z" fill="#2A2A2A" fill-opacity="0.26"/>
<path d="M620.4 21.6262C621.2 21.8848 622.8 21.8848 623.733 21.6262C624.533 21.2383 623.867 20.9797 622 20.9797C620.133 20.9797 619.467 21.2383 620.4 21.6262Z" fill="#2A2A2A" fill-opacity="0.26"/>
<path d="M1084.4 21.6262C1085.2 21.8848 1086.8 21.8848 1087.73 21.6262C1088.53 21.2383 1087.87 20.9797 1086 20.9797C1084.13 20.9797 1083.47 21.2383 1084.4 21.6262Z" fill="#2A2A2A" fill-opacity="0.26"/>
<path d="M1201.07 21.6262C1202.27 21.8848 1204.4 21.8848 1205.73 21.6262C1206.93 21.2383 1205.87 20.9797 1203.33 20.9797C1200.8 20.9797 1199.73 21.2383 1201.07 21.6262Z" fill="#2A2A2A" fill-opacity="0.26"/>
<path d="M1377.07 21.6262C1379.07 21.8848 1382 21.8848 1383.73 21.6262C1385.33 21.3676 1383.73 21.109 1380 21.109C1376.4 21.109 1374.93 21.3676 1377.07 21.6262Z" fill="#2A2A2A" fill-opacity="0.26"/>
<path d="M1641.73 21.6262C1644.8 21.8848 1649.6 21.8848 1652.4 21.6262C1655.07 21.3676 1652.53 21.109 1646.67 21.109C1640.8 21.109 1638.53 21.3676 1641.73 21.6262Z" fill="#2A2A2A" fill-opacity="0.26"/>
<path d="M15.3333 23.3071L0 24.0829L19.3333 24.3415C30 24.4708 39.6 23.9536 40.6667 23.3071C42.8 21.8848 42.1333 21.8848 15.3333 23.3071Z" fill="#2A2A2A" fill-opacity="0.26"/>
<path d="M308.533 22.5314C308 23.0486 248.667 23.5658 176.533 23.6951L45.3333 23.9537L153.333 24.6002C212.8 24.9881 259.2 25.6346 256.667 26.0225C254.133 26.4104 257.733 26.5397 264.667 26.2811C271.6 25.8932 286 25.2467 296.533 24.8588C323.067 23.5658 462.267 24.6002 457.333 26.0225C454.133 26.9276 454.667 26.9276 459.733 26.5397C463.2 26.1518 472.667 25.5053 480.8 25.1174C488.8 24.6002 495.733 23.5658 496.267 22.9193C496.8 22.0142 495.467 21.8849 492.533 22.5314C487.067 23.5658 323.867 23.5658 315.333 22.5314C312 22.1435 308.933 22.1435 308.533 22.5314Z" fill="#2A2A2A" fill-opacity="0.26"/>
<path d="M1211.73 22.9193C1212.27 23.5658 1219.2 24.6002 1227.2 25.1174C1235.33 25.5053 1244.8 26.1518 1248.27 26.5397C1253.33 26.9276 1253.87 26.9276 1250.67 26.0225C1245.73 24.6002 1384.93 23.5658 1411.47 24.8588C1422 25.2467 1436.4 25.8932 1443.33 26.2811C1450.27 26.5397 1453.87 26.4104 1451.33 26.0225C1448.8 25.6346 1495.33 24.9881 1554.67 24.6002L1662.67 23.9537L1532 23.4365C1460.13 23.1779 1398.93 22.9193 1396 22.9193C1393.07 22.9193 1352.27 23.0486 1305.33 23.1779C1258.4 23.3072 1218 23.0486 1215.47 22.5314C1212.53 21.8849 1211.2 22.0142 1211.73 22.9193Z" fill="#2A2A2A" fill-opacity="0.26"/>
<path d="M1667.33 23.3071C1669.2 24.4708 1708.53 25.2466 1707.2 24.0829C1706.93 23.8243 1697.33 23.3071 1686 22.9192C1672.67 22.402 1666 22.5313 1667.33 23.3071Z" fill="#2A2A2A" fill-opacity="0.26"/>
<path d="M222.667 28.4792L213.333 29.255L221.333 29.3843C225.733 29.3843 233.6 28.9964 238.667 28.4792L248 27.5741H240C235.6 27.5741 227.867 27.962 222.667 28.4792Z" fill="#2A2A2A" fill-opacity="0.26"/>
<path d="M1469.33 28.4792C1474.53 28.9964 1482.27 29.3843 1486.67 29.3843H1494.67L1484.67 28.4792C1479.2 27.962 1471.33 27.5741 1467.33 27.5741C1460.27 27.5741 1460.27 27.5741 1469.33 28.4792Z" fill="#2A2A2A" fill-opacity="0.26"/>
</svg>
